<svg width="19" height="20" viewBox="0 0 19 20" fill="none" xmlns="http://www.w3.org/2000/svg">
<path d="M4.5319 12.1377L3.16522 18.0557C3.1229 18.2349 3.13561 18.4227 3.20168 18.5945C3.26775 18.7664 3.38411 18.9143 3.53557 19.0191C3.68703 19.1238 3.86655 19.1804 4.05068 19.1814C4.2348 19.1825 4.41498 19.1281 4.56767 19.0252L9.56201 15.6956L14.5564 19.0252C14.7126 19.1289 14.8968 19.1823 15.0843 19.1782C15.2718 19.1741 15.4536 19.1127 15.6051 19.0022C15.7567 18.8917 15.8707 18.7375 15.932 18.5602C15.9933 18.383 15.9988 18.1912 15.9478 18.0107L14.2702 12.1404L18.4308 8.39628C18.564 8.27629 18.6592 8.11988 18.7045 7.94638C18.7498 7.77289 18.7432 7.58992 18.6856 7.4201C18.6281 7.25029 18.522 7.10107 18.3805 6.99091C18.239 6.88075 18.0683 6.81448 17.8896 6.80029L12.6604 6.38386L10.3976 1.37485C10.3255 1.21356 10.2082 1.0766 10.0599 0.980493C9.91163 0.88439 9.73871 0.833252 9.56201 0.833252C9.38532 0.833252 9.2124 0.88439 9.06413 0.980493C8.91586 1.0766 8.79857 1.21356 8.72641 1.37485L6.4636 6.38386L1.23445 6.79937C1.05875 6.81329 0.890792 6.87753 0.750655 6.98441C0.610517 7.09128 0.504137 7.23627 0.444242 7.40202C0.384346 7.56777 0.373472 7.74727 0.41292 7.91904C0.452367 8.09081 0.540467 8.24758 0.666677 8.37059L4.5319 12.1377ZM7.14877 8.16972C7.31249 8.15682 7.46973 8.10012 7.604 8.00555C7.73827 7.91098 7.84462 7.78203 7.91191 7.63222L9.56201 3.98071L11.2121 7.63222C11.2794 7.78203 11.3858 7.91098 11.52 8.00555C11.6543 8.10012 11.8115 8.15682 11.9753 8.16972L15.6185 8.45865L12.6182 11.159C12.3577 11.3938 12.2541 11.7552 12.3495 12.0927L13.4988 16.1148L10.072 13.83C9.92159 13.729 9.74454 13.6751 9.56339 13.6751C9.38224 13.6751 9.20519 13.729 9.05478 13.83L5.4739 16.2175L6.437 12.0478C6.47231 11.8944 6.46757 11.7346 6.42323 11.5836C6.3789 11.4326 6.29646 11.2955 6.18384 11.1856L3.39728 8.46874L7.14877 8.16972Z" fill="#F3CD03"/>
</svg>
