<svg width="19" height="20" viewBox="0 0 19 20" fill="none" xmlns="http://www.w3.org/2000/svg">
<path d="M18.6311 7.41927C18.5734 7.24946 18.4673 7.10025 18.3258 6.99006C18.1843 6.87987 18.0137 6.81353 17.8349 6.79922L12.6057 6.38371L10.3429 1.3747C10.2709 1.21337 10.1536 1.07634 10.0054 0.980156C9.85721 0.883971 9.68432 0.832739 9.50762 0.832642C9.33093 0.832545 9.15798 0.883587 9.00966 0.979609C8.86133 1.07563 8.74397 1.21253 8.67173 1.37378L6.40891 6.38371L1.17976 6.79922C1.00407 6.81314 0.836105 6.87738 0.695967 6.98425C0.555829 7.09113 0.449449 7.23612 0.389554 7.40187C0.329659 7.56762 0.318785 7.74712 0.358232 7.91889C0.39768 8.09066 0.485779 8.24743 0.61199 8.37044L4.4763 12.1375L3.10962 18.0555C3.06812 18.2347 3.08142 18.4221 3.14779 18.5936C3.21417 18.7651 3.33055 18.9127 3.48183 19.0172C3.63312 19.1217 3.81233 19.1783 3.9962 19.1797C4.18008 19.1811 4.36013 19.1272 4.51299 19.025L9.50733 15.6955L14.5017 19.025C14.6579 19.1288 14.8422 19.1822 15.0297 19.1781C15.2171 19.1739 15.3989 19.1125 15.5504 19.002C15.702 18.8916 15.816 18.7373 15.8773 18.5601C15.9386 18.3828 15.9441 18.1911 15.8931 18.0106L14.2155 12.1403L18.3761 8.39612C18.6485 8.15031 18.7485 7.7669 18.6311 7.41927Z" fill="#F3CD03"/>
</svg>
