<svg width="542" height="501" viewBox="0 0 542 501" fill="none" xmlns="http://www.w3.org/2000/svg">
<path opacity="0.35" fill-rule="evenodd" clip-rule="evenodd" d="M497.711 139.094C542.952 229.192 551.492 343.158 459.712 418.188C365.255 495.408 227.37 492.174 124.539 444.165C28.2597 399.214 -19.5713 305.847 8.5614 207.556C37.4535 106.612 132.28 19.0731 250.963 2.46222C365.509 -13.5698 454.5 53.0392 497.711 139.094Z" fill="#8EC2F2"/>
<path opacity="0.4" fill-rule="evenodd" clip-rule="evenodd" d="M326.508 10.1821C429.642 31.5793 531.316 95.2052 540.669 210.237C550.296 328.624 466.037 430.18 364.539 477.895C269.508 522.57 162.07 501.109 95.3673 419.577C26.8643 335.845 8.70755 210.838 64.7893 111.506C118.917 15.6364 228.001 -10.2549 326.508 10.1821Z" fill="#23A6F0"/>
</svg>
